PathFileType	4	(X/Y/Z)	C:\Users\Basilio\Documents\Thesis Gigler\squatting_fais\c3dfiles\041\SLS_pre_back1\markers_experimental.trc
DataRate	CameraRate	NumFrames	NumMarkers	Units	OrigDataRate	OrigDataStartFrame	OrigNumFrames
200.000000	200.000000	4	62	mm	200.000000	1520	1738
Frame#	Time	FHD			LBHD			RBHD			C7			T10			CLAV			LSHO			LUUPA			LMUPA			LDUPA			LLEP			LMEP			LRAD			LUL			LRFIN			RSHO			RUPA1			RMUPA			RDUPA			RLEP			RMEP			RRAD			RUL			RUFIN			LASI			RASI			USACR			LSACR			RSACR			LTHI1			LTHI2			LTHI3			LTHI4			LLFC			LMFC			LTIB1			LTIB2			LTIB3			LTIB4			LLMAL			LMMAL			LHEE			LMT1			LMT2			LMT5			RTHI			RTHI2			RTHI3			RTHI4			RLFC			RMFC			RTIB1			RTIB2			RTIB3			RTIB4			RLMAL			RMMAL			RHEE			RMT1			RMT2			RMT5			*61			
		X1	Y1	Z1	X2	Y2	Z2	X3	Y3	Z3	X4	Y4	Z4	X5	Y5	Z5	X6	Y6	Z6	X7	Y7	Z7	X8	Y8	Z8	X9	Y9	Z9	X10	Y10	Z10	X11	Y11	Z11	X12	Y12	Z12	X13	Y13	Z13	X14	Y14	Z14	X15	Y15	Z15	X16	Y16	Z16	X17	Y17	Z17	X18	Y18	Z18	X19	Y19	Z19	X20	Y20	Z20	X21	Y21	Z21	X22	Y22	Z22	X23	Y23	Z23	X24	Y24	Z24	X25	Y25	Z25	X26	Y26	Z26	X27	Y27	Z27	X28	Y28	Z28	X29	Y29	Z29	X30	Y30	Z30	X31	Y31	Z31	X32	Y32	Z32	X33	Y33	Z33	X34	Y34	Z34	X35	Y35	Z35	X36	Y36	Z36	X37	Y37	Z37	X38	Y38	Z38	X39	Y39	Z39	X40	Y40	Z40	X41	Y41	Z41	X42	Y42	Z42	X43	Y43	Z43	X44	Y44	Z44	X45	Y45	Z45	X46	Y46	Z46	X47	Y47	Z47	X48	Y48	Z48	X49	Y49	Z49	X50	Y50	Z50	X51	Y51	Z51	X52	Y52	Z52	X53	Y53	Z53	X54	Y54	Z54	X55	Y55	Z55	X56	Y56	Z56	X57	Y57	Z57	X58	Y58	Z58	X59	Y59	Z59	X60	Y60	Z60	X61	Y61	Z61	X62	Y62	Z62	

1521	7.600000000000001	-152.0076293945313	1771.56201171875	-1135.333374023438	-341.4847106933594	1697.78515625	-1175.040161132813	-294.2049255371094	1709.357788085938	-1029.585693359375	-368.5247497558594	1549.237182617188	-1112.963012695313	-381.8444519042969	1232.698608398438	-1092.910888671875	-204.8953247070313	1496.898559570313	-1125.459106445313	-301.5438537597657	1548.534301757813	-1286.987426757813	-309.7466125488282	1364.023193359375	-1386.86669921875	-268.2047729492188	1339.356567382813	-1383.07421875	-305.8903503417969	1298.373291015625	-1408.961791992188	-298.7285766601563	1248.6279296875	-1421.533081054688	-293.6429138183594	1204.619873046875	-1343.713256835938	-38.60780334472657	1153.3828125	-1389.982177734375	-75.32010650634767	1099.852783203125	-1427.363037109375	28.18781280517579	1134.473999023438	-1426.066772460938	-263.7239685058594	1549.471923828125	-954.6823730468752	-292.4189758300782	1356.149291992188	-832.5070800781252	-242.6821594238282	1351.047729492188	-833.7623291015627	-256.9754333496094	1300.835815429688	-806.516784667969	-238.3373107910157	1258.940185546875	-791.7183837890627	-264.5251159667969	1214.839721679688	-868.3319091796877	-21.46358299255371	1137.54345703125	-886.0819091796877	-47.44380950927735	1089.473022460938	-832.3432617187502	51.48928451538087	1112.741088867188	-878.461608886719	-201.8286437988282	1047.900024414063	-1191.560791015625	-213.4041442871094	1048.32177734375	-965.8792724609377	-385.1925354003907	1122.47998046875	-1085.927490234375	-399.6741333007814	1096.00341796875	-1112.427612304688	-403.0234375000001	1097.8388671875	-1058.04833984375	-311.7297058105469	835.2016601562502	-1243.656982421875	-275.9107055664063	760.0043334960939	-1228.303588867188	-228.8527374267579	763.9064941406251	-1221.6650390625	-302.4822387695313	707.5969848632814	-1217.064086914063	-281.3296508789063	528.5625610351564	-1182.679443359375	-285.3956604003907	522.2416992187501	-1061.393188476563	-278.9401245117188	340.5051879882813	-1104.375610351563	-324.3051147460938	297.6319580078126	-1165.68994140625	-287.5698242187501	290.4142150878907	-1136.1806640625	-307.2817077636719	219.122299194336	-1097.36181640625	-372.8249511718751	129.4100036621094	-1133.849487304688	-344.9401855468751	138.2490234375	-1049.011962890625	-444.0217590332032	113.4316864013672	-1094.569458007813	-241.3404693603516	60.31000137329103	-1049.683227539063	-230.638412475586	55.23430252075197	-1094.133056640625	-272.9415588378907	42.42055892944337	-1151.712036132813	-287.6998901367188	788.060241699219	-877.1542968750002	-240.9808197021485	739.7090454101564	-875.043884277344	-210.1170043945313	744.9298095703126	-884.4888305664065	-260.3712463378907	656.4629516601564	-877.246032714844	-277.4402465820313	552.4524536132814	-886.1536865234377	-257.1241149902344	516.6921997070314	-992.8365478515627	-378.7853088378907	423.3312377929689	-899.5438232421877	-489.741668701172	443.1476440429689	-911.9387207031252	-463.8724060058595	405.2980346679689	-903.0396118164065	-482.631561279297	355.0989379882813	-929.7122192382815	-611.2866821289064	324.3251647949219	-937.1062011718752	-560.8327636718751	313.9354553222657	-1005.967834472656	-670.7597656250001	333.9126892089844	-1000.202819824219	-512.3817138671876	185.1251678466797	-974.8365478515627	-520.1451416015626	182.1077270507813	-923.7670898437502	-577.6356201171876	193.2194976806641	-891.1783447265627	-4217.602050781251	853.2309570312502	-3944.651611328126	
1522	7.605	-152.4296875	1771.454833984375	-1134.940185546875	-341.8096923828126	1697.7998046875	-1174.669555664063	-294.3475036621094	1709.275024414063	-1029.088256835938	-368.7096252441407	1549.15771484375	-1112.671997070313	-381.8557128906251	1232.679931640625	-1092.947875976563	-204.8177185058594	1496.93896484375	-1125.370483398438	-301.7309265136719	1548.7529296875	-1286.699829101563	-309.5700683593751	1364.365234375	-1386.844116210938	-268.1614379882813	1339.812744140625	-1383.002807617188	-305.7384033203126	1298.785888671875	-1409.01318359375	-298.3735656738282	1248.9873046875	-1421.6015625	-293.5029907226563	1204.908447265625	-1343.837768554688	-38.22240447998048	1154.874145507813	-1389.049438476563	-74.8496551513672	1101.591430664063	-1426.696166992188	28.89676475524903	1136.51416015625	-1424.731079101563	-263.9159851074219	1549.369140625	-954.5083618164065	-292.1413269042969	1356.300537109375	-831.959899902344	-242.1300659179688	1351.294555664063	-833.2999267578127	-256.5131835937501	1301.099487304688	-805.8702392578127	-237.5838317871094	1259.224243164063	-791.0635375976565	-264.0732116699219	1214.922119140625	-867.5101318359377	-20.5430965423584	1138.7919921875	-886.7939453125002	-45.98769760131837	1090.801513671875	-832.6853637695315	52.5656204223633	1114.85986328125	-879.5286865234377	-201.6936187744141	1047.909301757813	-1191.671508789063	-213.4855651855469	1048.407470703125	-965.8815917968752	-385.3736877441407	1122.53857421875	-1086.22998046875	-399.7399902343751	1095.910278320313	-1112.591430664063	-403.1214294433595	1097.832275390625	-1058.228759765625	-311.5551452636719	835.1668701171877	-1243.734008789063	-275.7351989746094	759.8383789062501	-1228.185913085938	-228.7789611816407	764.0364379882814	-1221.763793945313	-302.3549499511719	707.5841064453126	-1217.079345703125	-281.1834106445313	528.5440063476564	-1182.620239257813	-285.2976379394532	522.2394409179689	-1061.336059570313	-278.8469238281251	340.5033569335938	-1104.206665039063	-323.9941711425782	297.2081604003907	-1165.774536132813	-287.3221130371094	290.6078796386719	-1136.232177734375	-307.2759094238282	219.1505432128907	-1097.124755859375	-372.7501525878907	129.4285278320313	-1133.802856445313	-345.0332641601563	138.2721405029297	-1048.923461914063	-444.0350952148439	113.4190979003907	-1094.575317382813	-241.2703094482422	60.28410720825197	-1049.61474609375	-230.5882720947266	55.30662155151369	-1094.018432617188	-273.1954650878907	42.58063507080079	-1151.77490234375	-287.7534790039063	788.0557250976565	-877.1813964843752	-240.9939727783204	739.7593994140626	-875.049011230469	-210.1980133056641	744.9619140625001	-884.458679199219	-260.4019165039063	656.4692993164064	-877.2266845703127	-277.4500732421876	552.4726562500001	-886.1445922851565	-256.4744567871094	516.4713134765626	-992.676940917969	-378.7316589355469	423.3038024902345	-899.4744262695315	-489.7231445312501	443.1306762695314	-911.9231567382815	-463.7979736328126	405.2388305664064	-903.085632324219	-482.5458068847657	355.1093444824219	-929.7363281250002	-611.2532348632814	324.3436584472657	-937.142517089844	-560.7764282226564	313.8773498535157	-1005.971374511719	-670.6188964843751	333.7154235839844	-1000.254272460938	-512.2073974609376	184.947265625	-974.1418457031252	-520.0083007812501	182.0630798339844	-923.665954589844	-577.5240478515626	193.2579040527344	-891.0093994140627	-4216.969726562501	853.1774902343752	-3944.817626953126	
1523	7.61	-152.6338043212891	1771.494750976563	-1134.614501953125	-342.1160278320313	1697.832885742188	-1174.191284179688	-294.4077148437501	1709.276123046875	-1028.705322265625	-368.9052124023438	1549.179565429688	-1112.39208984375	-382.0386352539063	1232.614868164063	-1093.03759765625	-205.0929260253907	1496.951171875	-1125.196533203125	-301.8395996093751	1548.983154296875	-1286.372802734375	-309.5049133300782	1364.705688476563	-1386.837280273438	-268.0807189941407	1340.195190429688	-1382.919555664063	-305.4855957031251	1299.15234375	-1409.03125	-298.1180419921876	1249.361083984375	-1421.62255859375	-293.3689270019532	1205.18359375	-1343.949462890625	-37.57393264770509	1156.397705078125	-1388.151733398438	-73.73016357421876	1102.409790039063	-1425.799926757813	29.56165885925294	1138.310668945313	-1423.510986328125	-264.2620849609376	1549.229370117188	-954.216735839844	-291.9762878417969	1356.333618164063	-831.409851074219	-241.8523712158204	1351.39404296875	-833.2751464843752	-255.9274444580079	1301.35791015625	-805.1103515625002	-237.0283813476563	1259.52197265625	-790.3339843750002	-263.6264038085938	1214.96826171875	-866.6267700195315	-19.92764282226563	1140.14404296875	-887.246765136719	-45.03551864624024	1091.86376953125	-832.876159667969	53.21020507812501	1116.512084960938	-880.6706542968752	-201.6403045654297	1047.929321289063	-1191.658203125	-213.7971496582032	1048.163208007813	-965.414245605469	-385.3728637695314	1122.456176757813	-1086.40380859375	-399.5115356445314	1095.774291992188	-1112.7373046875	-403.2141113281251	1097.77294921875	-1058.357421875	-311.4215087890626	835.1463623046877	-1243.805053710938	-275.6264648437501	759.7909545898439	-1228.225463867188	-228.6528015136719	763.9769897460939	-1221.756958007813	-302.2286987304688	707.5493774414064	-1217.122436523438	-280.9929199218751	528.4929809570314	-1182.523559570313	-285.2751770019532	522.2398071289064	-1061.287231445313	-278.8244628906251	340.4578552246094	-1104.100341796875	-323.8855895996094	297.1808166503907	-1165.740844726563	-287.0241394042969	290.5907287597657	-1136.044555664063	-307.2515258789063	219.1431579589844	-1096.973876953125	-373.0531005859376	129.670394897461	-1133.68310546875	-345.0777893066407	138.27099609375	-1048.794921875	-444.0202941894532	113.3800735473633	-1094.554077148438	-241.2884368896485	60.21794891357423	-1049.579345703125	-230.6111145019532	55.21064758300783	-1093.966918945313	-273.1766052246094	42.6200065612793	-1151.738647460938	-287.8009033203126	788.1209716796877	-877.2590332031252	-241.0698394775391	739.8140869140626	-875.0676879882815	-210.1539916992188	745.0205688476564	-884.4741821289065	-260.3957824707032	656.5493774414064	-877.2317504882815	-277.4075012207032	552.5068359375001	-886.1225585937502	-257.0523071289063	516.7244262695314	-992.7894287109377	-378.6766357421876	423.3211059570314	-899.5117187500002	-489.6662902832032	443.1143798828126	-911.969909667969	-463.7677001953126	405.2368469238282	-903.0877685546877	-482.4247131347657	355.1174621582032	-929.7229614257815	-611.2172241210939	324.3318176269532	-937.166198730469	-560.7731323242189	313.7767639160157	-1005.765808105469	-670.4891967773439	333.5471191406251	-1000.3115234375	-512.0411987304689	184.8552398681641	-973.8607177734377	-519.8869018554689	182.1713409423828	-923.4526977539065	-577.4374389648439	193.3809509277344	-890.7956542968752	-4216.661621093751	853.1010742187502	-3944.745361328126	
1524	7.615	-152.9547119140625	1771.514892578125	-1134.201538085938	-342.3015136718751	1697.927734375	-1173.838623046875	-294.5148010253907	1709.235717773438	-1028.267333984375	-369.1197204589844	1549.135620117188	-1112.13671875	-382.1633911132813	1232.582397460938	-1093.10400390625	-205.3606262207032	1497.038452148438	-1124.973266601563	-301.9594726562501	1549.186645507813	-1286.052734375	-309.3125000000001	1365.01806640625	-1386.787353515625	-267.8541870117188	1340.488403320313	-1382.814575195313	-305.2539978027344	1299.443969726563	-1409.001831054688	-297.8697204589844	1249.747680664063	-1421.708251953125	-293.2983703613282	1205.465209960938	-1344.010375976563	-37.99007797241212	1157.533447265625	-1387.08740234375	-72.76438903808595	1103.583251953125	-1425.06201171875	29.99951171875001	1139.753051757813	-1422.209228515625	-264.4983215332032	1549.09814453125	-954.0115356445315	-291.6968688964844	1356.380859375	-830.766540527344	-241.5640411376954	1351.525390625	-832.875183105469	-255.4777221679688	1301.620971679688	-804.497009277344	-236.2914276123047	1259.81689453125	-789.7661743164065	-263.2619934082032	1215.02685546875	-865.7109375000002	-19.799072265625	1141.155639648438	-887.9552001953127	-43.5599708557129	1092.979125976563	-833.2598876953127	53.92782974243165	1117.836669921875	-881.855407714844	-202.0197143554688	1047.81298828125	-1191.296630859375	-214.0618591308594	1048.163940429688	-965.371765136719	-385.3754882812501	1122.407470703125	-1086.554931640625	-399.7200317382814	1095.851684570313	-1112.933227539063	-403.1275634765626	1097.710693359375	-1058.4970703125	-311.2027282714844	835.0701904296877	-1243.859252929688	-275.4505920410157	759.7045288085939	-1228.196166992188	-228.6408081054688	763.9367675781251	-1221.678344726563	-302.0416564941407	707.4475708007814	-1217.166381835938	-280.7507629394532	528.4923706054689	-1182.401977539063	-285.2670288085938	522.2606201171876	-1061.18115234375	-278.7470703125001	340.4459533691407	-1103.978149414063	-323.8027038574219	297.2033386230469	-1165.664428710938	-286.7709655761719	290.5681152343751	-1135.825317382813	-307.2665100097657	219.1064758300782	-1096.7177734375	-373.0033569335938	129.6711883544922	-1133.647705078125	-345.2074279785157	138.1717834472657	-1048.606323242188	-444.038299560547	113.4053802490235	-1094.558471679688	-241.3370208740235	60.25822830200197	-1049.540283203125	-230.6221466064454	55.31015396118165	-1093.928588867188	-273.1919555664063	42.69009399414063	-1151.709106445313	-287.8616943359376	788.205017089844	-877.283386230469	-241.1181640625001	739.8630981445314	-875.0606689453127	-210.1879577636719	745.0662231445314	-884.5297851562502	-260.4183959960938	656.6049804687501	-877.270690917969	-277.3605651855469	552.5102539062501	-886.1549072265627	-256.9805297851563	516.7639770507814	-992.7819824218752	-378.5697326660157	423.3684082031251	-899.504089355469	-489.6380920410157	443.0926208496095	-911.9641113281252	-463.6997680664064	405.2388305664064	-903.132751464844	-482.3771362304689	355.1050720214844	-929.7510986328127	-611.1431884765626	324.3683166503907	-937.149108886719	-560.5874633789064	313.6718444824219	-1005.8896484375	-670.4592285156251	333.4512939453126	-1000.37060546875	-511.9642028808595	184.8299102783203	-973.6831665039065	-519.7500000000001	182.2684631347657	-923.264343261719	-577.3565673828126	193.4553680419922	-890.581970214844	-4217.487304687501	853.222595214844	-3944.691650390626	
